PathFileType	4	(X/Y/Z)	/Users/itak/Documents/Research/Walk-IL/dataset/trc/00159_00008.trc
DataRate	CameraRate	NumFrames	NumMarkers	Units	OrigDataRate	OrigDataStartFrame	OrigNumFrames
100.000000	100.000000	4	53	mm	100.000000	0	554
Frame#	Time	RPSI			LPSI			L3			STRN			T10			C7			CLAV			RBAK			LBAK			LSHO			LUPA			LAEL			LAOL			LWTS			LWPS			LFRA			LIFD			LHPS			LHTS			RSHO			RUPA			RAEL			RAOL			RWTS			RWPS			RFRA			RIFD			RHTS			RHPS			RBHD			LFHD			RFHD			LBHD			LHIP			RHIP			RASI			LASI			LKNE			LTHI			LANK			LTIP			LTOE			LMT1			LMT5			LHEE			RKNE			RTHI			RANK			RTIP			RTOE			RMT1			RMT5			RHEE			
		X1	Y1	Z1	X2	Y2	Z2	X3	Y3	Z3	X4	Y4	Z4	X5	Y5	Z5	X6	Y6	Z6	X7	Y7	Z7	X8	Y8	Z8	X9	Y9	Z9	X10	Y10	Z10	X11	Y11	Z11	X12	Y12	Z12	X13	Y13	Z13	X14	Y14	Z14	X15	Y15	Z15	X16	Y16	Z16	X17	Y17	Z17	X18	Y18	Z18	X19	Y19	Z19	X20	Y20	Z20	X21	Y21	Z21	X22	Y22	Z22	X23	Y23	Z23	X24	Y24	Z24	X25	Y25	Z25	X26	Y26	Z26	X27	Y27	Z27	X28	Y28	Z28	X29	Y29	Z29	X30	Y30	Z30	X31	Y31	Z31	X32	Y32	Z32	X33	Y33	Z33	X34	Y34	Z34	X35	Y35	Z35	X36	Y36	Z36	X37	Y37	Z37	X38	Y38	Z38	X39	Y39	Z39	X40	Y40	Z40	X41	Y41	Z41	X42	Y42	Z42	X43	Y43	Z43	X44	Y44	Z44	X45	Y45	Z45	X46	Y46	Z46	X47	Y47	Z47	X48	Y48	Z48	X49	Y49	Z49	X50	Y50	Z50	X51	Y51	Z51	X52	Y52	Z52	X53	Y53	Z53	

1	0	-1871.09765625	1052.840087890625	21.25895881652832	-1866.160522460938	1051.928833007812	-102.5517044067383	-1869.491455078125	1090.390258789062	-38.52434158325195	-1610.541015625	1300.24462890625	-43.71315383911133	-1905.7841796875	1248.875732421875	-47.1912841796875	-1839.7880859375	1517.503662109375	-58.91432189941406	-1637.647094726562	1414.400390625	-53.24016571044922	-1908.247680664062	1342.769897460938	50.88431549072266	-1845.38818359375	1494.6328125	-161.0743255615234	-1765.43212890625	1481.8076171875	-238.2937316894531	-1789.98388671875	1349.1826171875	-312.4801025390625	-1754.643798828125	1130.60888671875	-332.2011413574219	-1812.405517578125	1113.326782226562	-268.153076171875	-1637.389038085938	905.8908081054688	-277.7919616699219	-1708.443603515625	881.2709350585938	-335.3960571289062	-1730.98828125	1021.502319335938	-342.8311462402344	-1622.677001953125	728.9237670898438	-246.9841461181641	-1682.976318359375	812.6443481445312	-327.2824401855469	-1618.535278320312	828.2365112304688	-295.2216186523438	-1777.799926757812	1497.13671875	122.5098648071289	-1796.314697265625	1430.149169921875	192.8698425292969	-1794.224853515625	1138.713623046875	248.9038391113281	-1809.8466796875	1133.792114257812	151.9128265380859	-1635.732055664062	925.3920288085938	199.7702026367188	-1703.535888671875	899.139892578125	252.8946075439453	-1760.099243164062	1066.935424804688	259.6834716796875	-1611.156616210938	740.9633178710938	162.3728637695312	-1600.990356445312	833.4295654296875	199.5445251464844	-1668.243408203125	818.607177734375	241.150634765625	-1760.140258789062	1663.080810546875	43.81449127197266	-1668.670288085938	1745.027954101562	-137.7680816650391	-1613.447021484375	1737.134521484375	-19.89237785339355	-1823.505737304688	1677.970947265625	-76.60142517089844	-1758.646240234375	989.9058837890625	-219.7656402587891	-1721.902587890625	1011.441650390625	147.5659027099609	-1634.946899414062	1042.912841796875	94.31095886230469	-1634.955810546875	1029.9130859375	-164.2809295654297	-1748.126953125	495.3329162597656	-185.107421875	-1737.647705078125	637.9322509765625	-212.5978240966797	-1853.442504882812	43.62931442260742	-193.3533477783203	-1798.352172851562	275.0887451171875	-202.1124877929688	-1632.735473632812	38.56793594360352	-187.0801696777344	-1678.714599609375	37.83305358886719	-134.1167297363281	-1749.248779296875	34.04716110229492	-241.3001098632812	-1897.718627929688	41.09453582763672	-119.367073059082	-1726.096801757812	512.1965942382812	119.3635940551758	-1668.067260742188	780.6715698242188	154.0103454589844	-1844.716430664062	38.85322952270508	110.9877243041992	-1725.583862304688	392.9341735839844	99.53635406494141	-1622.5634765625	38.6118049621582	86.40458679199219	-1675.291015625	36.39054489135742	37.86202621459961	-1735.17919921875	32.61932373046875	151.7693939208984	-1892.812622070312	39.49249267578125	42.18697738647461	
2	0.01	-1871.033935546875	1052.817504882812	21.32424545288086	-1866.197998046875	1051.945556640625	-102.5172805786133	-1869.450561523438	1090.404174804688	-38.4725227355957	-1610.502197265625	1300.217407226562	-43.68562698364258	-1905.7314453125	1248.855346679688	-47.09916687011719	-1839.751220703125	1517.494018554688	-58.79605865478516	-1637.611450195312	1414.370239257812	-53.20365524291992	-1908.1689453125	1342.743896484375	51.01398849487305	-1845.384643554688	1494.614013671875	-160.9967193603516	-1765.450073242188	1481.795776367188	-238.2080688476562	-1789.995727539062	1349.193603515625	-312.4266967773438	-1754.503173828125	1130.654296875	-332.2862548828125	-1812.244506835938	1113.28466796875	-268.2441101074219	-1636.891967773438	906.0875854492188	-277.8773803710938	-1707.830444335938	881.2660522460938	-335.433349609375	-1730.669921875	1021.574096679688	-342.9057922363281	-1622.42333984375	729.06201171875	-247.0339508056641	-1682.321411132812	812.7722778320312	-327.3733825683594	-1617.913452148438	828.4848022460938	-295.3026123046875	-1777.731201171875	1497.128051757812	122.5653533935547	-1796.2041015625	1430.125366210938	192.9526977539062	-1794.12841796875	1138.640502929688	248.9241790771484	-1809.831420898438	1133.79248046875	151.9816284179688	-1635.542114257812	925.4159545898438	199.490234375	-1703.328491210938	899.1055297851562	252.6666870117188	-1759.915649414062	1066.8486328125	259.6280212402344	-1610.825805664062	741.028564453125	161.889892578125	-1600.7763671875	833.4812622070312	199.1129913330078	-1667.991821289062	818.5930786132812	240.7812347412109	-1760.684936523438	1663.331176757812	43.52165222167969	-1667.770385742188	1744.805541992188	-137.4975433349609	-1613.37255859375	1736.997924804688	-19.24088859558105	-1823.131713867188	1678.136108398438	-77.37239074707031	-1758.61962890625	989.9061279296875	-219.7325592041016	-1722.038208007812	1011.480712890625	147.5510711669922	-1634.867553710938	1042.942504882812	94.36844635009766	-1634.9326171875	1029.915771484375	-164.2929534912109	-1748.110473632812	495.3269958496094	-185.0959777832031	-1737.624755859375	637.9248046875	-212.5828247070312	-1853.437622070312	43.63026809692383	-193.3458709716797	-1798.339477539062	275.0893859863281	-202.0964660644531	-1632.735717773438	38.56960296630859	-187.0816802978516	-1678.722900390625	37.8326530456543	-134.1210784912109	-1749.2490234375	34.04816436767578	-241.2977905273438	-1897.719604492188	41.08939361572266	-119.3611526489258	-1725.994506835938	512.1682739257812	119.3441619873047	-1667.864379882812	780.69775390625	153.9330444335938	-1844.7197265625	38.85309600830078	110.984130859375	-1725.520629882812	392.9116516113281	99.53419494628906	-1622.567016601562	38.61049270629883	86.40340423583984	-1675.285278320312	36.38794326782227	37.85275650024414	-1735.178955078125	32.63087844848633	151.7679748535156	-1892.81201171875	39.48749923706055	42.18924713134766	
3	0.02	-1870.9541015625	1052.787963867188	21.40828132629395	-1866.2509765625	1051.9541015625	-102.4693984985352	-1869.396240234375	1090.421752929688	-38.40516662597656	-1610.453857421875	1300.182983398438	-43.65043258666992	-1905.667114257812	1248.828369140625	-46.98264312744141	-1839.709838867188	1517.482543945312	-58.64996719360352	-1637.570678710938	1414.331420898438	-53.15646362304688	-1908.075805664062	1342.714599609375	51.17594528198242	-1845.382446289062	1494.589721679688	-160.8989105224609	-1765.477783203125	1481.776733398438	-238.1002655029297	-1790.015869140625	1349.203735351562	-312.3585205078125	-1754.3486328125	1130.70263671875	-332.3771667480469	-1812.059448242188	1113.2294921875	-268.339599609375	-1636.2939453125	906.3378295898438	-277.9656372070312	-1707.088989257812	881.2685546875	-335.4541625976562	-1730.297729492188	1021.653747558594	-342.9832458496094	-1622.060668945312	729.2536010742188	-247.0725250244141	-1681.517578125	812.9307861328125	-327.450927734375	-1617.1611328125	828.7915649414062	-295.3815612792969	-1777.648071289062	1497.117553710938	122.6376342773438	-1796.073608398438	1430.09765625	193.0537872314453	-1794.014892578125	1138.556518554688	248.9582977294922	-1809.818481445312	1133.792846679688	152.0757141113281	-1635.325439453125	925.4472045898438	199.1492309570312	-1703.078491210938	899.0618286132812	252.4031677246094	-1759.69970703125	1066.746704101562	259.5685424804688	-1610.517456054688	741.0897827148438	161.2956085205078	-1600.525756835938	833.5354614257812	198.5991363525391	-1667.700561523438	818.5816040039062	240.3410186767578	-1761.40576171875	1663.653076171875	43.10348510742188	-1666.590087890625	1744.515502929688	-137.1432647705078	-1613.314697265625	1736.826904296875	-18.38241577148438	-1822.64111328125	1678.3466796875	-78.41313934326172	-1758.590087890625	989.9042358398438	-219.6900482177734	-1722.163696289062	1011.514343261719	147.5351104736328	-1634.775390625	1042.97119140625	94.428466796875	-1634.90771484375	1029.919311523438	-164.3087310791016	-1748.092163085938	495.3196716308594	-185.0831146240234	-1737.6015625	637.9172973632812	-212.5677490234375	-1853.433227539062	43.63101577758789	-193.3379364013672	-1798.325073242188	275.0914001464844	-202.0790863037109	-1632.735595703125	38.57090377807617	-187.0830535888672	-1678.731567382812	37.83397674560547	-134.1257781982422	-1749.250610351562	34.04846954345703	-241.2952728271484	-1897.720703125	41.08292388916016	-119.3537979125977	-1725.866088867188	512.1354370117188	119.3205337524414	-1667.620361328125	780.7396240234375	153.8238525390625	-1844.722045898438	38.85258865356445	110.9819946289062	-1725.43701171875	392.8830871582031	99.52881622314453	-1622.570556640625	38.60800933837891	86.40135955810547	-1675.283203125	36.38414764404297	37.84207534790039	-1735.17822265625	32.64773559570312	151.7660827636719	-1892.81103515625	39.48010635375977	42.19319534301758	
4	0.03	-1870.861450195312	1052.751831054688	21.50860404968262	-1866.314819335938	1051.947509765625	-102.4059982299805	-1869.328125	1090.440307617188	-38.32241058349609	-1610.399169921875	1300.142700195312	-43.60906982421875	-1905.595092773438	1248.79541015625	-46.84644317626953	-1839.66796875	1517.469604492188	-58.4836540222168	-1637.529052734375	1414.284545898438	-53.10031509399414	-1907.974975585938	1342.68408203125	51.36273574829102	-1845.382934570312	1494.560302734375	-160.7847442626953	-1765.516479492188	1481.748901367188	-237.9748840332031	-1790.04638671875	1349.210327148438	-312.2785949707031	-1754.1962890625	1130.746948242188	-332.4616394042969	-1811.86669921875	1113.162231445312	-268.4255981445312	-1635.633544921875	906.6297607421875	-278.0427856445312	-1706.264892578125	881.2821044921875	-335.4437866210938	-1729.901611328125	1021.732299804688	-343.0518188476562	-1621.546508789062	729.5047607421875	-247.0879516601562	-1680.609741210938	813.1103515625	-327.4928894042969	-1616.321899414062	829.1400756835938	-295.4415283203125	-1777.555419921875	1497.10546875	122.7247543334961	-1795.932495117188	1430.067626953125	193.1677398681641	-1793.892211914062	1138.468994140625	249.0094757080078	-1809.810180664062	1133.793090820312	152.1938018798828	-1635.10302734375	925.4848022460938	198.76953125	-1702.802368164062	899.0101318359375	252.124755859375	-1759.467651367188	1066.636962890625	259.512451171875	-1610.289428710938	741.1360473632812	160.6249847412109	-1600.259765625	833.5840454101562	198.0355224609375	-1667.392700195312	818.5733642578125	239.8601531982422	-1762.29150390625	1664.037109375	42.55411911010742	-1665.154663085938	1744.1640625	-136.7082214355469	-1613.291870117188	1736.629638671875	-17.33242416381836	-1822.04345703125	1678.594116210938	-79.71604156494141	-1758.560302734375	989.8994750976562	-219.6395568847656	-1722.247192382812	1011.532958984375	147.5207214355469	-1634.67626953125	1042.993774414062	94.48371124267578	-1634.8828125	1029.923583984375	-164.3275756835938	-1748.073608398438	495.3115234375	-185.0700378417969	-1737.58154296875	637.9108276367188	-212.5549926757812	-1853.430541992188	43.63103866577148	-193.3301239013672	-1798.310791015625	275.0944519042969	-202.0623474121094	-1632.7353515625	38.57169342041016	-187.0840606689453	-1678.73974609375	37.83724975585938	-134.1303558349609	-1749.253784179688	34.04818344116211	-241.2931518554688	-1897.721557617188	41.07559204101562	-119.3458633422852	-1725.716552734375	512.1005249023438	119.29345703125	-1667.349975585938	780.7984619140625	153.686767578125	-1844.722778320312	38.85177230834961	110.9818954467773	-1725.334716796875	392.8497009277344	99.51927947998047	-1622.572998046875	38.60401153564453	86.39821624755859	-1675.288330078125	36.37914657592773	37.83090209960938	-1735.1767578125	32.66938018798828	151.7638397216797	-1892.809448242188	39.47053527832031	42.19907379150391	
